<?xml version="1.0" encoding="UTF-8"?> <svg xmlns="http://www.w3.org/2000/svg" width="428" height="90" viewBox="0 0 428 90" fill="none"><path d="M6.85223 23V22.8563C7.4898 22.8563 7.85798 22.6857 7.85798 21.9314V1.78044C7.85798 1.09796 7.59756 0.810603 6.86121 0.837543V0.693864H11.8271C15.9758 0.693864 18.58 3.2711 18.58 6.44102C18.58 9.61991 15.5897 13.0143 10.3634 12.5204L8.92659 12.3857V21.9314C8.92659 22.6767 9.28579 22.8563 9.93234 22.8563V23H6.85223ZM8.91761 12.1343C14.2068 13.0143 17.5473 10.3114 17.5473 6.44102C17.5473 3.36988 15.015 0.855504 11.8002 0.855504C11.0997 0.855504 8.92659 0.864483 8.92659 0.882444L8.91761 12.1343ZM20.3331 23V22.8563C20.9796 22.8563 21.1143 22.7845 21.1143 22.0032V1.92411C21.1143 0.954282 20.9796 0.837543 20.1086 0.837543V0.693864H23.1707V0.837543C22.2997 0.837543 22.156 0.954282 22.156 1.92411V22.093C22.156 22.56 22.3176 22.7935 23.1258 22.7935H28.1097C26.4125 21.195 25.3528 18.9231 25.3528 16.4177C25.3528 11.5865 29.2771 7.65331 34.1083 7.65331C34.2879 7.65331 34.4675 7.66229 34.6381 7.67127L37.2333 1.35838L36.9639 0.693864H38.0864L46.761 21.7698C47.2369 22.8563 47.4884 22.8563 48.1708 22.8563V23H45.1087V22.8563C45.6564 22.8473 45.854 22.8114 45.854 22.5779C45.854 22.3894 45.7283 22.084 45.5577 21.5812L41.9567 12.8168C40.6726 10.0869 37.9337 8.12924 34.7818 7.88679L29.0166 21.8775C28.8999 22.2277 28.8191 22.4612 28.8191 22.6049C28.8191 22.6767 28.837 22.7306 28.8909 22.7755C30.2828 22.6857 30.5971 22.2996 30.7947 21.0603H30.9204L30.7498 23H20.3331ZM41.373 11.4159L37.35 1.63676L34.8626 7.68923C37.5296 7.91373 39.9003 9.34153 41.373 11.4159ZM28.3162 22.6947C28.4868 22.56 28.6215 22.2996 28.8191 21.8146L34.5573 7.8778C34.4136 7.86883 34.2609 7.86883 34.1083 7.86883C29.3938 7.86883 25.5594 11.6943 25.5594 16.4177C25.5594 18.8962 26.619 21.1322 28.3162 22.6947ZM51.025 23V22.8294H51.3214C52.0218 22.8294 52.0398 22.7486 52.0398 21.5542V2.17555L51.8512 1.7086C51.5189 0.882444 51.4381 0.873462 50.6209 0.873462V0.693864H53.5215V0.873462H53.4317C52.6324 0.873462 52.7761 1.09796 53.1174 2.08575L60.5617 20.9885V2.04085C60.5527 0.963262 60.5078 0.864483 59.7625 0.864483H59.547V0.693864H61.783V0.864483H61.4867C60.7862 0.864483 60.7683 0.945303 60.7683 2.04085V21.5183L60.9568 21.9853C61.2891 22.8114 61.3699 22.8204 62.1871 22.8204V23H59.2866V22.8204H59.3764C60.1846 22.8204 60.0409 22.6049 59.6907 21.6171L52.2463 2.71435V21.5542C52.2822 22.7396 52.3002 22.8294 53.0455 22.8294H53.261V23H51.025ZM64.9565 23V22.8563C65.648 22.8563 65.9623 22.7216 65.9623 21.7698V1.92411C65.9623 0.954282 65.648 0.837543 64.9565 0.837543V0.693864H78.6599L78.8305 2.63353H78.7048C78.4713 1.17878 77.9325 0.900402 75.9749 0.900402H67.9738C67.1836 0.900402 67.004 0.954282 67.004 1.92411V11.7482H75.1039V11.9457H67.004V21.7698C67.004 22.7216 67.1926 22.7935 67.9738 22.7935H75.9749C77.9325 22.7935 78.4713 22.5151 78.7048 21.0603H78.8305L78.6599 23H64.9565ZM87.6822 23.2065C85.6258 23.2065 83.5515 22.1918 82.4649 20.3868C82.0698 19.7313 81.8722 19.1297 81.5848 18.1059H82.6265C82.5367 18.3664 82.4918 18.6358 82.4918 18.9231C82.4918 19.5337 82.7073 20.1893 83.2192 20.8269C83.9825 21.8685 85.6079 22.533 87.341 22.533C89.0202 22.533 90.8162 21.9134 91.9926 20.3509C92.6391 19.4888 92.9983 18.3753 93.0612 17.199C93.0881 16.723 93.0702 16.75 93.0702 16.6961V1.89717C93.0702 0.972243 92.8816 0.828564 92.0644 0.828564V0.693864H95.1266V0.828564C94.2914 0.828564 94.1118 0.972243 94.1118 1.89717V17.1092C94.1118 18.6807 93.4922 20.0905 92.5583 21.1412C92.0195 21.7428 91.355 22.2187 90.6456 22.551C89.9272 22.8833 89.1549 23.0808 88.3827 23.1706C88.1492 23.1976 87.9157 23.2065 87.6822 23.2065ZM95.1151 23V22.8563C95.7347 22.8563 95.9322 22.8384 96.2016 22.3085L104.885 1.22368L104.679 0.693864H105.801L109.797 10.4101C110.085 10.3383 110.372 10.2575 110.65 10.1856L110.731 10.3832C110.444 10.455 110.165 10.5269 109.878 10.6077L114.377 21.5273C114.916 22.8294 115.149 22.8563 115.904 22.8563V23H112.832V22.8563C113.228 22.8473 113.506 22.8473 113.506 22.4792C113.506 22.2636 113.416 21.9134 113.183 21.3567L108.881 10.913C103.134 12.7539 98.9585 16.0046 96.956 21.0334C96.6866 21.7249 96.4172 22.3355 96.4172 22.6228C96.4172 22.9012 96.7674 22.8563 97.1086 22.8563V23H95.1151ZM98.0156 18.4562C100.404 14.6307 104.328 12.1343 108.8 10.7155L105.002 1.49308L98.0156 18.4562ZM117.013 23V22.8294H117.309C118.019 22.8294 118.028 22.7306 118.028 21.7698V2.17555L117.839 1.7086C117.507 0.891423 117.426 0.873462 116.618 0.873462V0.693864H119.518V0.873462H119.429C118.62 0.873462 118.764 1.08 119.114 2.08575L125.409 18.1239L131.507 2.14861L131.65 1.74452C131.83 1.08 131.713 0.837543 130.986 0.837543H130.725V0.693864H133.787V0.837543C132.943 0.837543 132.782 0.954282 132.782 1.92411V21.7698C132.782 22.7396 132.88 22.8563 133.787 22.8563V23H130.725V22.8563C131.587 22.8563 131.74 22.7396 131.74 21.7698V2.17555L125.203 19.2374H124.754L118.243 2.71435V21.7698C118.243 22.7396 118.297 22.8294 119.042 22.8294H119.249V23H117.013ZM136.094 23V22.8563C136.786 22.8563 137.1 22.7216 137.1 21.7698V1.92411C137.1 0.954282 136.786 0.837543 136.094 0.837543V0.693864H149.798L149.968 2.63353H149.843C149.609 1.17878 149.07 0.900402 147.113 0.900402H139.112C138.321 0.900402 138.142 0.954282 138.142 1.92411V11.7482H146.242V11.9457H138.142V21.7698C138.142 22.7216 138.33 22.7935 139.112 22.7935H147.113C149.07 22.7935 149.609 22.5151 149.843 21.0603H149.968L149.798 23H136.094ZM153.172 23V22.8294H153.468C154.168 22.8294 154.186 22.7486 154.186 21.5542V2.17555L153.998 1.7086C153.666 0.882444 153.585 0.873462 152.768 0.873462V0.693864H155.668V0.873462H155.578C154.779 0.873462 154.923 1.09796 155.264 2.08575L162.708 20.9885V2.04085C162.699 0.963262 162.654 0.864483 161.909 0.864483H161.694V0.693864H163.93V0.864483H163.633C162.933 0.864483 162.915 0.945303 162.915 2.04085V21.5183L163.103 21.9853C163.436 22.8114 163.517 22.8204 164.334 22.8204V23H161.433V22.8204H161.523C162.331 22.8204 162.188 22.6049 161.837 21.6171L154.393 2.71435V21.5542C154.429 22.7396 154.447 22.8294 155.192 22.8294H155.408V23H153.172ZM171.548 23V22.8563C172.392 22.8563 172.554 22.7396 172.554 21.7698V1.89717C172.554 0.963262 172.437 0.900402 171.584 0.900402H169.788C167.624 0.900402 167.319 2.10371 167.058 3.75602H166.924L167.103 0.693864H179.055L179.235 3.75602H179.1C178.84 2.10371 178.535 0.900402 176.37 0.900402H174.575C173.694 0.900402 173.605 0.999183 173.605 1.92411V21.7698C173.605 22.7396 173.721 22.8563 174.61 22.8563V23H171.548ZM192.337 22.9731C185.881 23.009 180.654 17.7198 180.654 11.8469C180.654 5.42629 185.162 0.693864 191.655 0.693864C197.339 0.693864 202.557 5.70466 202.781 11.82C202.997 17.7827 198.668 22.9371 192.337 22.9731ZM191.376 22.3624C197.088 22.3624 202.485 17.5492 202.485 11.4339C202.485 6.0908 197.384 1.32246 192.58 1.32246C186.662 1.32246 180.96 5.78548 181.283 12.7719C181.535 18.1778 186.069 22.3624 191.376 22.3624Z" fill="white"></path><path d="M8.66113 80.1875V79.8816C10.3627 79.8816 10.8216 79.5183 10.8216 77.4535V35.3155C10.8216 33.1933 10.3627 33.0021 8.66113 33.0021V32.6962H15.1807V33.0021C13.5364 33.0021 13.0394 33.2124 13.0394 35.3155V63.5541C16.9587 52.5798 35.4658 59.2906 41.2971 50.19C41.603 49.712 42.0427 48.5266 42.0427 48.4693V35.3155C42.0427 33.2697 41.7368 33.0021 39.8823 33.0021V32.6962H46.4018V33.0021C44.7002 33.0021 44.2414 33.2506 44.2414 35.3155V77.5682C44.2414 79.6713 44.4517 79.8816 46.4018 79.8816V80.1875H39.8823V79.8816C41.7942 79.8816 42.0427 79.6713 42.0427 77.5682V49.6738C37.4733 59.7876 19.1765 53.4784 14.0909 62.2731C13.6129 63.0187 13.0776 64.6247 13.0394 65.1601V77.3579C13.0776 79.4801 13.307 79.8816 15.1807 79.8816V80.1875H8.66113ZM52.8646 80.1875V79.8816C54.6618 79.8816 55.0059 79.5757 55.0059 77.5682V35.3155C55.0059 33.2506 54.6618 33.0021 52.8646 33.0021V32.6962H59.3841V33.0021C57.6061 33.0021 57.2428 33.2506 57.2428 35.3155V77.5682C57.2428 79.6331 57.4914 79.8816 59.3841 79.8816V80.1875H52.8646ZM89.8435 81.4876C73.191 81.4876 64.8934 68.525 65.314 56.5566C65.7728 43.6322 75.6382 31.5873 90.6656 31.5873C104.546 31.5873 111.352 42.6189 113.513 47.3221L111.371 48.1634C109.154 40.9555 102.424 32.352 89.1552 32.4859C77.9133 32.6006 66.5185 43.0777 66.5185 54.6255C66.5185 68.8691 76.6515 80.0537 90.6656 80.3022C99.0015 80.4552 107.643 75.6946 111.486 68.1044L100.053 58.9655L100.359 58.4876L115.31 70.0736C115.138 70.303 114.87 70.8575 114.775 70.7428L112.002 68.525C107.108 76.8799 97.8734 81.4876 89.8435 81.4876ZM121.2 80.1875V79.8816C122.691 79.8816 123.36 79.6331 123.36 77.5682V35.3155C123.36 33.2506 122.691 33.0021 121.2 33.0021V32.6962H127.719V33.0021C126.247 33.0021 125.578 33.2506 125.578 35.3155V56.2315H140.395V35.3155C140.395 33.2506 139.726 33.0021 138.235 33.0021V32.6962H144.773V33.0021C143.282 33.0021 142.613 33.2506 142.613 35.3155V77.5682C142.613 79.6331 143.282 79.8816 144.773 79.8816V80.1875H138.235V79.8816C139.726 79.8816 140.395 79.6331 140.395 77.5682V56.6521H125.578V77.5682C125.578 79.6331 126.247 79.8816 127.719 79.8816V80.1875H121.2ZM168.483 80.1875V79.8816C170.51 79.8816 170.644 79.3463 170.644 77.5682V35.0096C170.644 32.4094 168.865 33.308 168.865 32.6962H173.664C173.664 33.308 172.861 32.4094 172.861 34.4934V35.4684C174.888 33.958 176.322 32.6962 180.643 32.6962C185.231 32.6962 191.464 36.0611 191.464 42.5806C191.464 47.3604 188.061 50.993 183.396 52.121L183.931 52.1401C190.642 52.3886 197.907 57.3978 197.907 66.1925C197.907 73.8974 192.821 80.1875 182.172 80.1875H168.483ZM182.746 51.9298C185.346 51.2797 189.304 49.7311 189.246 42.5806C189.208 38.2215 187.506 33.7286 181.407 33.1933C178.559 32.9447 175.251 33.5948 172.861 36.3479V44.894C172.861 47.0927 174.41 49.5399 176.628 50.6679C179.878 52.3313 182.21 52.0636 182.746 51.9298ZM174.219 79.7286H182.172C186.378 79.7286 195.67 77.5491 195.67 66.3454C195.67 65.2939 195.708 58.6023 191.139 55.4285C186.053 51.8915 183.453 52.8857 180.891 52.4269C175.136 51.3945 173.454 48.756 172.861 47.0927V77.4726C172.861 79.2507 172.976 79.7286 174.219 79.7286ZM216.655 80.1875C209.849 80.3022 204.916 73.9356 204.553 68.047C204.151 61.4701 204.266 55.983 204.266 34.8184C204.266 33.3462 203.998 33.0594 202.105 33.0021V32.6962H208.625V33.0021C206.675 32.983 206.522 33.3462 206.522 34.8184C206.522 66.9381 206.273 67.8176 206.541 69.4809C208.166 79.5757 220.249 83.5715 226.1 73.3047C226.979 71.6222 227.495 69.653 227.572 67.8558C227.476 59.52 227.438 55.3712 227.495 43.5175L227.534 34.914C227.534 33.3462 227.534 33.0021 225.354 33.0021V32.6962H230.382V33.0021C228.375 33.0021 228.26 33.3462 228.26 35.0287L228.241 45.9838L228.222 59.2523C228.222 61.4701 228.184 63.6879 228.184 65.8866C228.184 66.7278 228.203 67.1293 228.164 67.569C228.069 68.5823 227.878 69.8633 227.591 70.8957C226.864 73.5341 225.144 76.2108 222.983 77.855C222.085 78.5433 221.091 79.1168 220.02 79.5183C218.949 79.9198 217.802 80.1684 216.655 80.1875ZM252.394 81.6597C250.673 81.6597 248.952 81.4111 247.384 80.914C239.068 78.2756 236.257 70.7619 236.295 62.8658L238.666 63.0379C238.456 64.2997 238.379 65.466 238.379 66.594C238.379 76.3064 245.281 80.9905 252.298 80.9905C256.733 80.9905 261.226 79.0786 263.96 75.3887C265.662 73.0944 266.312 70.4751 266.312 68.047C266.312 65.6189 265.681 63.382 264.821 61.929C262.641 58.239 258.473 56.4036 254.611 54.9506C250.845 53.5358 246.734 52.4269 243.771 50.2473C242.031 48.9664 240.655 47.2074 240.138 45.1617C239.928 44.3205 239.832 43.4601 239.832 42.5998C239.832 38.9481 241.63 35.3346 244.631 33.2697C247.002 31.6446 249.946 30.8225 252.852 30.8225C255.3 30.8225 257.766 31.4152 259.773 32.5432C263.253 34.4934 264.974 37.648 265.433 41.4144H263.062C263.1 41.032 263.138 40.6305 263.138 40.2481C263.138 34.6845 258.091 31.5108 252.948 31.5108C250.749 31.5108 248.531 32.1226 246.715 33.3271C243.752 35.2963 242.471 38.3362 242.203 41.6629C242.184 41.8924 242.184 42.1027 242.184 42.313C242.184 46.4618 244.861 48.4884 248.283 50.1135C250.94 51.3753 253.866 52.3504 256.6 53.4211C261.207 55.2182 265.509 57.4934 267.536 61.929C268.32 63.7644 268.702 65.6763 268.702 67.5499C268.702 72.062 266.446 76.3255 262.393 78.8683C259.467 80.7037 255.873 81.6597 252.394 81.6597ZM275.196 80.1875V79.8816C276.994 79.8816 277.338 79.5757 277.338 77.5682V35.3155C277.338 33.2506 276.994 33.0021 275.196 33.0021V32.6962H281.716V33.0021C279.938 33.0021 279.575 33.2506 279.575 35.3155V77.5682C279.575 79.6331 279.823 79.8816 281.716 79.8816V80.1875H275.196ZM288.296 80.1875V79.8242H288.927C290.418 79.8242 290.456 79.6522 290.456 77.1094V35.8508L290.055 34.8566C289.347 33.0977 289.175 33.0786 287.435 33.0786V32.6962H293.611V33.0786H293.42C291.718 33.0786 292.024 33.5565 292.75 35.6596L308.6 75.9049V35.564C308.581 33.2697 308.485 33.0594 306.898 33.0594H306.44V32.6962H311.2V33.0594H310.569C309.078 33.0594 309.04 33.2315 309.04 35.564V77.0329L309.441 78.0271C310.149 79.786 310.321 79.8051 312.061 79.8051V80.1875H305.885V79.8051H306.076C307.797 79.8051 307.491 79.3463 306.746 77.2432L290.896 36.9979V77.1094C290.972 79.6331 291.011 79.8242 292.598 79.8242H293.056V80.1875H288.296ZM317.957 80.1875V79.8816C319.429 79.8816 320.098 79.5948 320.098 77.5682V35.3155C320.098 33.2506 319.429 33.0021 317.957 33.0021V32.6962H347.132L347.496 36.8259H347.228C346.731 33.7286 345.584 33.1359 341.416 33.1359H324.381C322.698 33.1359 322.316 33.2506 322.316 35.3155V56.2315H339.561V56.6521H322.316V77.5682C322.316 79.5948 322.718 79.7478 324.381 79.7478H341.416C345.584 79.7478 346.731 79.1551 347.228 76.0578H347.496L347.132 80.1875H317.957ZM369.993 81.6979C361.657 81.6979 353.322 76.3064 353.322 62.9996C353.322 62.6172 353.341 62.2157 353.36 61.8142L355.539 62.0437C355.291 63.3246 355.176 64.6438 355.176 65.9248C355.176 71.584 357.47 76.9564 363.149 79.6139C365.233 80.589 367.546 81.0861 369.84 81.0861C374.276 81.0861 378.692 79.2507 381.656 75.7519C383.548 73.515 384.524 70.4942 384.524 67.4543C384.524 65.4851 384.122 63.4967 383.262 61.7569C381.273 57.7228 376.895 55.6771 372.918 53.9946C368.674 52.1974 362.04 50.515 358.981 46.2706C357.948 44.8367 357.451 42.963 357.451 40.9555C357.451 37.4568 359.095 33.6521 362.346 31.3387C364.659 29.6945 367.737 28.815 370.834 28.815C376.991 28.815 383.223 32.2947 383.893 40.0569L381.694 40.0187C381.751 39.579 381.79 39.1392 381.79 38.6995C381.79 32.9065 376.455 29.4077 370.968 29.4077C368.731 29.4077 366.475 30.0387 364.525 31.2431C361.466 33.1359 359.631 36.845 359.631 40.4776C359.631 41.3953 359.707 42.3321 359.994 43.2116C360.663 45.2382 362.231 46.6912 364.181 47.9148C370.299 51.7577 380.413 52.9813 384.715 59.7685C386.072 61.9098 386.703 64.3762 386.703 67.0146C386.703 67.4543 386.703 67.8749 386.665 68.2956C386.588 69.0794 386.493 69.4236 386.493 69.8251C386.493 70.2457 386.608 70.7619 387.066 71.8899C389.15 76.9946 394.064 79.5757 399.073 79.5757C402.495 79.5757 405.937 78.3903 408.537 76.0005C410.984 73.7444 412.246 70.6854 412.246 67.4543C412.246 66.4601 412.131 65.4277 411.883 64.4144C409.244 53.6505 393.146 55.5624 388.5 47.9531C387.716 46.6721 387.353 45.1235 387.353 43.5366C387.353 42.0836 387.697 40.6305 388.214 39.3113C389.972 34.8184 394.79 32.4285 399.608 32.4285C405.153 32.4285 410.678 35.6023 411.405 42.3895L409.206 42.4086C409.244 42.0262 409.263 41.6438 409.263 41.2806C409.263 36.0993 404.522 33.0786 399.704 33.0786C397.869 33.0786 396.033 33.4992 394.408 34.4169C391.942 35.8126 390.336 38.0877 389.839 40.7452C389.686 41.5482 389.571 42.3703 389.571 43.1733C389.571 44.7793 390.011 46.3279 391.139 47.6854C393.204 50.1708 398.251 51.8151 401.711 53.1343C406.396 54.9123 411.366 56.9389 413.393 61.6804C414.12 63.382 414.483 65.1601 414.483 66.919C414.483 70.4369 413.03 73.8783 410.2 76.3446C407.447 78.7345 403.337 80.1875 399.207 80.1875C393.892 80.1875 388.519 77.8168 385.862 72.0237C383.759 78.0079 376.876 81.6979 369.993 81.6979Z" fill="white"></path><path fill-rule="evenodd" clip-rule="evenodd" d="M4.34957 12.2207H0.748019H0V12.9687V88.5187V89.2667H0.748019H427.252H428V88.5187V12.9687V12.2207H427.252H211.39V12.9687H427.252V88.5187H0.748019V12.9687H4.34957V12.2207Z" fill="white"></path></svg> 